<svg width="51" height="50" viewBox="0 0 51 50" fill="none" xmlns="http://www.w3.org/2000/svg">
<circle cx="25.1875" cy="25" r="25" fill="#EAB308"/>
<path d="M19.875 34.6875C19.3594 34.6875 18.9181 34.5041 18.5512 34.1372C18.1837 33.7697 18 33.3281 18 32.8125V23.4375C18 22.9219 18.1837 22.4803 18.5512 22.1128C18.9181 21.7459 19.3594 21.5625 19.875 21.5625H20.8125V19.6875C20.8125 18.3906 21.2697 17.285 22.1841 16.3706C23.0978 15.4569 24.2031 15 25.5 15C26.7969 15 27.9025 15.4569 28.8169 16.3706C29.7306 17.285 30.1875 18.3906 30.1875 19.6875V21.5625H31.125C31.6406 21.5625 32.0822 21.7459 32.4497 22.1128C32.8166 22.4803 33 22.9219 33 23.4375V32.8125C33 33.3281 32.8166 33.7697 32.4497 34.1372C32.0822 34.5041 31.6406 34.6875 31.125 34.6875H19.875ZM25.5 30C26.0156 30 26.4572 29.8166 26.8247 29.4497C27.1916 29.0822 27.375 28.6406 27.375 28.125C27.375 27.6094 27.1916 27.1678 26.8247 26.8003C26.4572 26.4334 26.0156 26.25 25.5 26.25C24.9844 26.25 24.5431 26.4334 24.1763 26.8003C23.8088 27.1678 23.625 27.6094 23.625 28.125C23.625 28.6406 23.8088 29.0822 24.1763 29.4497C24.5431 29.8166 24.9844 30 25.5 30ZM22.6875 21.5625H28.3125V19.6875C28.3125 18.9062 28.0391 18.2422 27.4922 17.6953C26.9453 17.1484 26.2812 16.875 25.5 16.875C24.7188 16.875 24.0547 17.1484 23.5078 17.6953C22.9609 18.2422 22.6875 18.9062 22.6875 19.6875V21.5625Z" fill="white"/>
</svg>
