<svg width="51" height="50" viewBox="0 0 51 50" fill="none" xmlns="http://www.w3.org/2000/svg">
<circle cx="25.1875" cy="25" r="25" fill="#E8356D"/>
<path d="M26.9146 16.1547C29.0934 16.6389 30.901 17.7525 32.3373 19.4955C33.7737 21.2385 34.4919 23.2801 34.4919 25.6203C34.4919 27.0889 34.1972 28.4446 33.6078 29.6873C33.0191 30.9301 32.2163 31.9952 31.1995 32.8829H32.5552C32.8296 32.8829 33.0594 32.9758 33.2447 33.1618C33.4306 33.347 33.5236 33.5769 33.5236 33.8512C33.5236 34.1256 33.4306 34.3554 33.2447 34.5407C33.0594 34.7266 32.8296 34.8196 32.5552 34.8196H28.6818C28.4075 34.8196 28.1776 34.7266 27.9924 34.5407C27.8065 34.3554 27.7135 34.1256 27.7135 33.8512V29.9778C27.7135 29.7035 27.8065 29.4733 27.9924 29.2874C28.1776 29.1021 28.4075 29.0095 28.6818 29.0095C28.9562 29.0095 29.186 29.1021 29.3713 29.2874C29.5572 29.4733 29.6502 29.7035 29.6502 29.9778V31.6482C30.5378 30.922 31.2441 30.0424 31.7689 29.0095C32.2931 27.9766 32.5552 26.8469 32.5552 25.6203C32.5552 23.7643 31.9865 22.1462 30.849 20.766C29.7109 19.3864 28.2784 18.4949 26.5515 18.0914C26.3255 18.043 26.1399 17.93 25.9947 17.7525C25.8494 17.575 25.7768 17.3732 25.7768 17.1473C25.7768 16.8245 25.8898 16.5582 26.1157 16.3484C26.3417 16.1386 26.608 16.074 26.9146 16.1547ZM22.7023 35.0859C20.5235 34.6017 18.7159 33.4881 17.2796 31.7451C15.8432 30.0021 15.125 27.9605 15.125 25.6203C15.125 24.1516 15.4197 22.796 16.0091 21.5532C16.5979 20.3105 17.4006 19.2454 18.4174 18.3577H17.0617C16.7873 18.3577 16.5575 18.2647 16.3722 18.0788C16.1863 17.8935 16.0933 17.6637 16.0933 17.3894C16.0933 17.115 16.1863 16.8848 16.3722 16.6989C16.5575 16.5137 16.7873 16.421 17.0617 16.421H20.9351C21.2094 16.421 21.4396 16.5137 21.6255 16.6989C21.8108 16.8848 21.9034 17.115 21.9034 17.3894V21.2627C21.9034 21.5371 21.8108 21.7672 21.6255 21.9532C21.4396 22.1384 21.2094 22.2311 20.9351 22.2311C20.6607 22.2311 20.4306 22.1384 20.2446 21.9532C20.0594 21.7672 19.9667 21.5371 19.9667 21.2627V19.5923C19.0791 20.3025 18.3728 21.1782 17.848 22.2195C17.3238 23.2601 17.0617 24.3937 17.0617 25.6203C17.0617 27.4763 17.6308 29.0941 18.7689 30.4736C19.9064 31.8539 21.3385 32.7457 23.0654 33.1492C23.2914 33.1976 23.477 33.3106 23.6222 33.4881C23.7675 33.6656 23.8401 33.8674 23.8401 34.0933C23.8401 34.4161 23.7271 34.6824 23.5012 34.8922C23.2752 35.102 23.0089 35.1666 22.7023 35.0859ZM23.4286 29.6631C23.2994 29.6631 23.1784 29.6431 23.0654 29.6031C22.9525 29.5624 22.8476 29.4937 22.7507 29.3968L20.0151 26.6371C19.8376 26.4595 19.745 26.2375 19.7372 25.9708C19.7288 25.7049 19.8215 25.475 20.0151 25.2814C20.1927 25.1038 20.4186 25.0151 20.693 25.0151C20.9674 25.0151 21.1933 25.1038 21.3708 25.2814L23.4286 27.3391L28.2461 22.5216C28.4397 22.3279 28.6657 22.235 28.9239 22.2427C29.1821 22.2511 29.4081 22.3521 29.6018 22.5458C29.7793 22.7395 29.8723 22.9654 29.8806 23.2236C29.8884 23.4819 29.7954 23.7078 29.6018 23.9015L24.1064 29.3968C24.0096 29.4937 23.9047 29.5624 23.7917 29.6031C23.6787 29.6431 23.5577 29.6631 23.4286 29.6631Z" fill="white"/>
</svg>
